#N canvas 69 0 1400 1148 12;
#X obj 121 192 vu 10 120 empty empty -1 -8 0 10 -1 -262144 0 0;
#X obj 134 192 vu 10 120 empty empty -1 -8 0 10 -1 -1 1 0;
#X obj 646 793 *~;
#X obj 664 764 vline~;
#X obj 818 797 *~;
#X obj 836 766 vline~;
#X obj 728 -267 inlet~;
#X obj 597 922 outlet~;
#X obj 818 923 outlet~;
#X obj 818 833 *~;
#X obj 646 826 *~;
#X obj 104 319 tgl 25 0 empty empty empty 17 7 0 10 -262144 -258113
-1 0 1;
#X obj 750 9 sel 1 0;
#X msg 750 59 0;
#X msg 786 58 1;
#X floatatom 750 99 5 0 0 0 - - -;
#X obj 751 167 vline~;
#X obj 499 -102 loadbang;
#X obj 429 53 line;
#X msg 429 87 1;
#X msg 429 -9 1;
#X obj 104 191 vsl 15 120 0 1 0 0 empty empty empty 0 -9 0 10 -262144
-1 -1 11900 1;
#X obj 109 169 hsl 15 15 0 1 0 0 empty empty empty -2 -8 0 10 -262144
-1 -1 0 1;
#X msg -24 -243 0;
#X obj 598 504 *~;
#X obj 616 475 vline~;
#X obj 693 506 *~;
#X obj 711 477 vline~;
#X obj 617 346 - 1;
#X obj 617 375 * -1;
#X obj 825 -266 inlet~;
#X obj 152 169 hsl 15 15 0 1 0 0 empty empty empty -2 -8 0 10 -262144
-1 -1 1400 1;
#X obj 804 509 *~;
#X obj 822 480 vline~;
#X obj 899 511 *~;
#X obj 917 482 vline~;
#X obj 824 -100 *~;
#X obj 842 -129 vline~;
#X obj 728 -102 *~;
#X obj 746 -131 vline~;
#X obj 112 113 vsl 50 50 0 5 0 0 empty empty empty 0 -9 0 10 -262144
-1 -1 1080 1;
#X obj 822 348 - 1;
#X obj 822 376 * -1;
#X msg 256 -31 0.5;
#X obj 130 169 tgl 15 0 empty empty empty 17 7 0 10 -262144 -1 -1 0
1;
#X floatatom 22 -201 5 0 0 0 - - -;
#X floatatom 297 -31 5 0 0 0 - - -;
#X obj 22 -147 spigot;
#X obj 265 11 spigot;
#X obj 66 -238 - 1;
#X obj 66 -202 * -1;
#X obj 192 -79 sel 0 1;
#X obj 208 23 float;
#X obj 208 54 float;
#X msg 433 -76 1;
#X msg 432 -44 0;
#X obj 192 -34 del 20;
#X obj 164 132 tgl 10 0 empty empty O 2 -7 0 10 -262144 -1 -1 1 1;
#X obj 719 870 dac~;
#X obj 753 828 *~;
#X obj 704 829 *~;
#X obj 721 1025 outlet~;
#X obj 823 1032 outlet~;
#X obj 664 681 pow 2;
#X obj -24 -277 loadbang;
#X obj 429 21 pack 0 20;
#X obj 750 130 pack 0 50;
#X obj 664 735 pack 0 10;
#X obj 836 737 pack 0 10;
#X obj 616 446 pack 0 10;
#X obj 711 448 pack 0 10;
#X obj 822 451 pack 0 10;
#X obj 917 453 pack 0 10;
#X obj 617 411 pow 1;
#X obj 711 410 pow 1;
#X obj 822 414 pow 1;
#X obj 917 412 pow 1;
#X obj 746 -199 pow 2;
#X obj 842 -197 pow 2;
#X obj 746 -160 pack 0 10;
#X obj 842 -158 pack 0 10;
#X obj -66 288 ctlin;
#X obj -139 478 ==;
#X floatatom -153 364 5 0 0 0 - - -;
#X floatatom -104 365 5 0 0 0 - - -;
#X floatatom -56 363 5 0 0 0 - - -;
#X obj -109 420 spigot;
#X obj -144 531 tgl 15 0 empty empty empty 17 7 0 10 -262144 -1 -1
0 1;
#X obj -68 479 ==;
#X obj -38 421 spigot;
#X obj -73 532 tgl 15 0 empty empty empty 17 7 0 10 -262144 -1 -1 0
1;
#X obj 134 325 tgl 15 0 empty empty MAP 17 7 0 10 -191407 -1 -1 0 1
;
#X obj -147 610 == 2;
#X obj -125 569 +;
#X obj -222 524 spigot;
#X floatatom -192 658 5 0 0 0 - - -;
#X obj 108 455 bng 15 250 50 0 empty empty empty 17 7 0 10 -262144
-1 -1;
#X obj 41 431 del 10;
#X msg 109 484 0;
#X obj 32 659 / 127;
#N canvas 329 161 625 417 vu 0;
#X obj 59 129 env~ 1024;
#X obj 161 111 abs~;
#X obj 161 213 snapshot~;
#X obj 161 256 rmstodb;
#X obj 161 21 inlet~;
#X obj 161 288 - 100;
#X obj 59 287 - 100;
#X obj 59 361 outlet;
#X obj 161 361 outlet;
#X text 344 307 Check the help file of env~ and slop~ for more details.
, f 31;
#X obj 239 89 expr 1000 / $f1;
#X floatatom 239 117 5 0 0 0 - - -;
#X obj 161 146 slop~ 0 0 0 0 1e+009;
#X obj 239 18 inlet;
#X floatatom 239 57 5 0 0 0 - - -;
#X text 359 89 convert to hz;
#X text 282 118 hz;
#X text 284 57 peak decay time in ms;
#X obj 59 171 t f b;
#X text 345 132 The env~ object is dedicated to RMS analysis. Its output
is in dB (0-100 range \, pd style) but needs to be converted to dBFS
(and we do that by simply subtracting 100)., f 31;
#X text 345 225 The slop~ object is used here for peak detection. We
need to convert the output to dB with rmstodb and also subtract by
100 to convert it to dBFS., f 31;
#X connect 0 0 18 0;
#X connect 1 0 12 0;
#X connect 2 0 3 0;
#X connect 3 0 5 0;
#X connect 4 0 0 0;
#X connect 4 0 1 0;
#X connect 5 0 8 0;
#X connect 6 0 7 0;
#X connect 10 0 11 0;
#X connect 11 0 12 3;
#X connect 12 0 2 0;
#X connect 13 0 14 0;
#X connect 14 0 10 0;
#X connect 18 0 6 0;
#X connect 18 1 2 0;
#X restore 402 687 pd vu;
#N canvas 329 161 625 417 vu 0;
#X obj 59 129 env~ 1024;
#X obj 161 111 abs~;
#X obj 161 213 snapshot~;
#X obj 161 256 rmstodb;
#X obj 161 21 inlet~;
#X obj 161 288 - 100;
#X obj 59 287 - 100;
#X obj 59 361 outlet;
#X obj 161 361 outlet;
#X text 344 307 Check the help file of env~ and slop~ for more details.
, f 31;
#X obj 239 89 expr 1000 / $f1;
#X floatatom 239 117 5 0 0 0 - - -;
#X obj 161 146 slop~ 0 0 0 0 1e+009;
#X obj 239 18 inlet;
#X floatatom 239 57 5 0 0 0 - - -;
#X text 359 89 convert to hz;
#X text 282 118 hz;
#X text 284 57 peak decay time in ms;
#X obj 59 171 t f b;
#X text 345 132 The env~ object is dedicated to RMS analysis. Its output
is in dB (0-100 range \, pd style) but needs to be converted to dBFS
(and we do that by simply subtracting 100)., f 31;
#X text 345 225 The slop~ object is used here for peak detection. We
need to convert the output to dB with rmstodb and also subtract by
100 to convert it to dBFS., f 31;
#X connect 0 0 18 0;
#X connect 1 0 12 0;
#X connect 2 0 3 0;
#X connect 3 0 5 0;
#X connect 4 0 0 0;
#X connect 4 0 1 0;
#X connect 5 0 8 0;
#X connect 6 0 7 0;
#X connect 10 0 11 0;
#X connect 11 0 12 3;
#X connect 12 0 2 0;
#X connect 13 0 14 0;
#X connect 14 0 10 0;
#X connect 18 0 6 0;
#X connect 18 1 2 0;
#X restore 465 688 pd vu;
#X obj 455 544 loadbang;
#X msg 435 598 2000;
#X msg 498 599 2000;
#X obj 925 -220 adc~;
#X obj 941 -149 *~;
#X obj 985 -149 *~;
#X obj 1071 -188 line~;
#X obj 101 132 tgl 10 0 empty empty I 2 -7 0 10 -262144 -1 -1 1 1;
#X obj 1123 -174 pack 0 10;
#X connect 2 0 10 0;
#X connect 3 0 2 1;
#X connect 4 0 9 0;
#X connect 5 0 4 1;
#X connect 6 0 38 0;
#X connect 9 0 8 0;
#X connect 9 0 59 0;
#X connect 10 0 7 0;
#X connect 10 0 60 0;
#X connect 11 0 12 0;
#X connect 12 0 13 0;
#X connect 12 1 14 0;
#X connect 13 0 15 0;
#X connect 14 0 15 0;
#X connect 15 0 66 0;
#X connect 16 0 10 1;
#X connect 16 0 9 1;
#X connect 17 0 20 0;
#X connect 17 0 19 0;
#X connect 17 0 54 0;
#X connect 17 0 55 0;
#X connect 18 0 21 0;
#X connect 18 0 40 0;
#X connect 19 0 15 0;
#X connect 20 0 65 0;
#X connect 21 0 63 0;
#X connect 22 0 28 0;
#X connect 22 0 45 0;
#X connect 22 0 74 0;
#X connect 23 0 22 0;
#X connect 23 0 45 0;
#X connect 24 0 2 0;
#X connect 24 0 61 0;
#X connect 24 0 100 0;
#X connect 25 0 24 1;
#X connect 26 0 4 0;
#X connect 26 0 62 0;
#X connect 26 0 101 0;
#X connect 27 0 26 1;
#X connect 28 0 29 0;
#X connect 29 0 73 0;
#X connect 30 0 36 0;
#X connect 31 0 41 0;
#X connect 31 0 46 0;
#X connect 31 0 76 0;
#X connect 32 0 2 0;
#X connect 32 0 61 0;
#X connect 32 0 100 0;
#X connect 33 0 32 1;
#X connect 34 0 4 0;
#X connect 34 0 62 0;
#X connect 34 0 101 0;
#X connect 35 0 34 1;
#X connect 36 0 32 0;
#X connect 36 0 34 0;
#X connect 37 0 36 1;
#X connect 38 0 24 0;
#X connect 38 0 26 0;
#X connect 39 0 38 1;
#X connect 40 0 77 0;
#X connect 40 0 78 0;
#X connect 41 0 42 0;
#X connect 42 0 75 0;
#X connect 43 0 22 0;
#X connect 43 0 31 0;
#X connect 44 0 49 0;
#X connect 44 0 51 0;
#X connect 45 0 47 0;
#X connect 46 0 48 0;
#X connect 47 0 52 1;
#X connect 48 0 53 1;
#X connect 49 0 50 0;
#X connect 50 0 48 1;
#X connect 50 0 47 1;
#X connect 51 0 56 0;
#X connect 51 1 43 0;
#X connect 52 0 22 0;
#X connect 53 0 31 0;
#X connect 54 0 31 0;
#X connect 54 0 40 0;
#X connect 54 0 53 1;
#X connect 55 0 46 0;
#X connect 55 0 44 0;
#X connect 56 0 53 0;
#X connect 56 0 52 0;
#X connect 57 0 60 1;
#X connect 57 0 59 1;
#X connect 59 0 58 1;
#X connect 60 0 58 0;
#X connect 63 0 67 0;
#X connect 63 0 68 0;
#X connect 64 0 23 0;
#X connect 65 0 18 0;
#X connect 66 0 16 0;
#X connect 67 0 3 0;
#X connect 68 0 5 0;
#X connect 69 0 25 0;
#X connect 70 0 27 0;
#X connect 71 0 33 0;
#X connect 72 0 35 0;
#X connect 73 0 69 0;
#X connect 74 0 70 0;
#X connect 75 0 71 0;
#X connect 76 0 72 0;
#X connect 77 0 79 0;
#X connect 78 0 80 0;
#X connect 79 0 39 0;
#X connect 80 0 37 0;
#X connect 81 0 83 0;
#X connect 81 1 84 0;
#X connect 81 2 85 0;
#X connect 82 0 87 0;
#X connect 83 0 94 0;
#X connect 84 0 86 0;
#X connect 84 0 82 0;
#X connect 84 0 97 0;
#X connect 85 0 89 0;
#X connect 85 0 88 0;
#X connect 86 0 82 1;
#X connect 87 0 93 0;
#X connect 88 0 90 0;
#X connect 89 0 88 1;
#X connect 90 0 93 1;
#X connect 91 0 86 1;
#X connect 91 0 89 1;
#X connect 92 0 94 1;
#X connect 93 0 92 0;
#X connect 94 0 95 0;
#X connect 95 0 99 0;
#X connect 96 0 98 0;
#X connect 97 0 96 0;
#X connect 98 0 91 0;
#X connect 99 0 21 0;
#X connect 100 0 0 0;
#X connect 100 1 0 1;
#X connect 101 0 1 0;
#X connect 101 1 1 1;
#X connect 102 0 103 0;
#X connect 102 0 104 0;
#X connect 103 0 100 1;
#X connect 104 0 101 1;
#X connect 105 0 106 0;
#X connect 105 1 107 0;
#X connect 106 0 38 0;
#X connect 107 0 36 0;
#X connect 108 0 106 1;
#X connect 108 0 107 1;
#X connect 109 0 110 0;
#X connect 110 0 108 0;
#X coords 0 -1 1 1 75 250 2 100 100;
